<?xml version="1.0" encoding="utf-8"?>
<!-- Generator: Adobe Illustrator 25.0.0, SVG Export Plug-In . SVG Version: 6.00 Build 0)  -->
<svg version="1.1" id="Capa_1" xmlns="http://www.w3.org/2000/svg" xmlns:xlink="http://www.w3.org/1999/xlink" x="0px" y="0px"
	 viewBox="0 0 800 373.3" style="enable-background:new 0 0 800 373.3;" xml:space="preserve">
<style type="text/css">
	.st0{fill:#FAF9F6;}
</style>
<path class="st0" d="M186.7,53.3c-73.5,0-133.3,59.8-133.3,133.3S113.2,320,186.7,320S320,260.2,320,186.7S260.2,53.3,186.7,53.3z
	 M186.7,293.3C127.8,293.3,80,245.6,80,186.7S127.7,80,186.6,80s106.7,47.7,106.7,106.7l0,0C293.3,245.5,245.6,293.3,186.7,293.3
	L186.7,293.3z"/>
<path class="st0" d="M613.3,0H186.7C83.7,0,0,83.7,0,186.7s83.7,186.7,186.7,186.7h426.7c102.9,0,186.7-83.7,186.7-186.7
	S716.3,0,613.3,0z M613.3,346.7H186.7c-88.2,0-160-71.8-160-160s71.8-160,160-160h426.7c88.2,0,160,71.8,160,160
	S701.6,346.7,613.3,346.7z"/>
</svg>
