<?xml version="1.0" encoding="utf-8"?>
<!-- Generator: Adobe Illustrator 25.0.0, SVG Export Plug-In . SVG Version: 6.00 Build 0)  -->
<svg version="1.1" id="Capa_1" xmlns="http://www.w3.org/2000/svg" xmlns:xlink="http://www.w3.org/1999/xlink" x="0px" y="0px"
	 viewBox="0 0 800 373.3" style="enable-background:new 0 0 800 373.3;" xml:space="preserve">
<style type="text/css">
	.st0{fill:#479400;}
	.st1{opacity:0.99;}
	.st2{fill:#FFFFFF;}
</style>
<path class="st0" d="M186.7,373.3h426.7c102.9,0,186.7-83.7,186.7-186.7S716.3,0,613.3,0H186.7C83.7,0,0,83.7,0,186.7
	S83.7,373.3,186.7,373.3z M613.3,53.3c73.5,0,133.3,59.8,133.3,133.3S686.8,320,613.3,320S480,260.2,480,186.7
	S539.8,53.3,613.3,53.3L613.3,53.3z"/>
<g class="st1">
	<path class="st2" d="M185,190.5h-31.4v-5.2c-5.4,3.6-11.8,5.6-18.4,5.7c-8.4,0.1-16.4-3.4-22-9.5c-6.1-6.4-9.5-14.3-10.3-23.9
		c-0.6-11.3,2.8-20.7,10.3-28c7-6.9,15.6-10.3,25.9-10.3c4.9,0,9.8,0.9,14.4,2.7c0-5.8-0.4-9.2-1.3-10.1c-2.4-3-7.2-4.5-14.3-4.5
		c-11.7,0-19.9,2.8-24.7,8.3V88.1c9.9-4.2,20.5-6.3,31.3-6.2c11.5,0,20.9,2.3,27.9,6.8c8.4,5.4,12.6,13.5,12.6,24.4V190.5z
		 M153.4,161.2v-14.1c-0.6-1.7-1.8-3.2-3.5-4.1c-1.7-1.1-3.7-1.6-5.8-1.4c-3.1,0.1-5.9,1.5-7.9,3.8c-4.3,5.1-4.3,12.6,0,17.7
		c2,2.3,4.9,3.7,7.9,3.8C148.9,167,152,165.2,153.4,161.2L153.4,161.2z"/>
	<path class="st2" d="M277.4,190.5h-30.7v-6.7c-1.2,2-3.8,3.8-8,5.2c-4.4,1.5-9,2.2-13.7,2c-8,0-15.8-3.1-21.6-8.6
		c-7-6.5-10.5-15.1-10.5-25.8V84.4h30.9v68.2c-0.2,3.4,1.1,6.7,3.4,9.2c2,2.2,4.9,3.5,7.9,3.5c6.3,0,10.1-4.2,11.3-12.6V84.4h30.8
		V190.5z"/>
	<path class="st2" d="M341.4,189.8c-4.7,0.9-9.5,1.4-14.4,1.4c-9.7,0-17.4-2.4-23-7.1s-8.4-11.6-8.4-20.6v-56h-10.7V84.4h10.6V62.6
		l31.1-11.2v33h13.2v23.2h-13.2v48.8c0,5.8,2.5,8.6,7.6,8.6c2.4-0.1,4.9-0.5,7.2-1.2V189.8z"/>
	<path class="st2" d="M438,110.1c3.9,8,5.8,17.2,5.8,27.5c0,15.1-3.9,27.5-11.7,37.3c-9.3,11.4-21.6,17.1-36.9,17.1
		c-14.8,0-26.9-5.8-36.2-17.3c-7.7-9.6-11.6-21.9-11.6-37c0-10.4,1.9-19.6,5.8-27.5c3.8-8.2,10-15.2,17.8-19.9
		c7.2-4.5,15.6-6.9,24.2-6.9c8.6-0.1,17.1,2.3,24.4,6.9C427.7,94.8,434.1,101.7,438,110.1z M413,138c0-8.4-1.7-15.1-5.2-20.1
		c-3.2-4.7-7.4-7-12.6-7c-4.9,0-9,2.5-12.2,7.4c-3.2,4.9-4.9,11.5-5,19.8c0,7.9,1.6,14.3,4.9,19.2c3.3,4.9,7.3,7.4,12.3,7.4
		c5,0,9.3-2.4,12.8-7.3C411.5,152.5,413.1,146,413,138L413,138z"/>
	<path class="st2" d="M164.4,243.3c-8.8-4.3-15.8-6.1-20.8-5.4c-5.6,0.8-8.4,3.4-8.4,7.7c0,2.5,1.4,4.9,4.3,7.2c3.9,3,7.9,6,11.9,9
		c3.8,3.1,7.3,6.7,10.3,10.6c2.9,4.4,4.4,9.6,4.3,14.9c0,8.6-3.4,16.9-9.4,23c-7.1,7.7-16.7,11.5-28.7,11.5
		c-7.3,0-15.6-1.4-24.9-4.3v-28.4c2.8,2.5,6.1,4.4,9.7,5.7c3.8,1.5,7.8,2.4,11.9,2.4c2.6,0.1,5.2-0.6,7.4-2c2.4-1.4,3.8-3.9,3.8-6.6
		c0-2.9-1.4-5.7-4.1-8.2c-4.1-2.7-10-7.1-17.7-13.1c-6.7-5.6-10.5-13.9-10.3-22.7c0-5.3,1.3-10.5,3.8-15.1
		c5.8-10.7,16.3-16.6,31.6-17.5c8.6-0.4,17.2,0.6,25.5,3.1L164.4,243.3z"/>
	<path class="st2" d="M254.3,320.5h-31.5v-5.2c-5.4,3.6-11.8,5.6-18.4,5.7c-8.4,0.1-16.4-3.4-22-9.5c-6.1-6.4-9.5-14.4-10.3-24
		c-0.6-11.3,2.8-20.7,10.3-28c7-6.9,15.6-10.3,25.9-10.3c4.9,0,9.8,0.9,14.4,2.7c0-5.8-0.4-9.2-1.3-10.1c-2.4-3-7.2-4.5-14.3-4.5
		c-11.7,0-19.9,2.8-24.7,8.3v-27.5c9.9-4.2,20.5-6.3,31.3-6.1c11.5,0,20.9,2.3,27.9,6.9c8.4,5.4,12.6,13.5,12.6,24.4L254.3,320.5z
		 M222.6,291.2v-14.1c-0.6-1.7-1.9-3.2-3.5-4.1c-1.7-1.1-3.7-1.6-5.8-1.5c-3.1,0.1-5.9,1.5-7.9,3.8c-4.3,5.1-4.3,12.6,0,17.7
		c2,2.3,4.9,3.7,7.9,3.8C218.2,297,221.3,295.2,222.6,291.2L222.6,291.2z"/>
	<path class="st2" d="M353.9,214.4l-25.8,106.2h-40l-25.9-106.2H295l13.1,69.1l13.4-69.1L353.9,214.4z"/>
	<path class="st2" d="M448.1,275.2h-57.4c0,6.6,2.4,11.7,7.2,15.3c4.3,3.1,9.9,4.7,16.9,4.7c11.5,0,21.2-3.4,29-10.3v29.7
		c-10.2,4.8-21.3,7.3-32.6,7.2c-15,0-27.1-4.2-36.4-12.7c-10.9-10.2-16.2-25.5-15.8-45.7c0.4-16.6,5.7-29.6,16.2-38.9
		c8.1-7.4,18.7-11.5,29.7-11.5c14.7-0.1,25.9,5.1,33.4,15.6c6.7,9.4,10.1,22.1,10.1,38.1C448.4,269.4,448.3,272.3,448.1,275.2z
		 M418.7,253.7c-0.2-3.8-1.9-7.4-4.7-10.1c-2.6-2.5-6.1-3.9-9.8-4c-3.6,0-7,1.4-9.5,3.9c-2.8,2.7-4.5,6.3-4.8,10.2H418.7z"/>
</g>
</svg>
