<?xml version="1.0" encoding="utf-8"?>
<!-- Generator: Adobe Illustrator 25.0.0, SVG Export Plug-In . SVG Version: 6.00 Build 0)  -->
<svg version="1.1"
	 id="Layer_1" shape-rendering="geometricPrecision" text-rendering="geometricPrecision" image-rendering="optimizeQuality"
	 xmlns="http://www.w3.org/2000/svg" xmlns:xlink="http://www.w3.org/1999/xlink" x="0px" y="0px" viewBox="0 0 512 342.7"
	 style="enable-background:new 0 0 512 342.7;" xml:space="preserve">
<style type="text/css">
	.st0{fill-rule:evenodd;clip-rule:evenodd;fill:#FAF9F6;}
</style>
<path class="st0" d="M3.6,300.5c-2,0-3.6-1.6-3.6-3.6c0,0,0,0,0,0c0-1,0.1-2,0.4-3c5.8-45.6,41.5-57.8,66.9-64.4
	c12.7-3.3,44.3-15.8,31.7-33c-7.1-9.7-13.4-16.5-19.8-26.7c-4.6-6.8-7-12.9-7-17.8c0-5.2,2.8-11.3,8.3-12.6
	c-0.7-10.4-1-24.2-0.5-35.4c1.8-19.2,15.5-33.3,33.3-39.6c7.1-2.7,3.6-13.4,11.4-13.6c18.2-0.5,48.1,15.1,59.8,27.7
	c6.8,7.3,11.2,17,11.9,29.9l-0.7,32.2c3.4,1,5.6,3.2,6.6,6.6c1,3.9,0,9.2-3.4,16.8c0,0.2-0.2,0.2-0.2,0.5
	c-7.5,12.4-15.3,20.6-23.9,32c-3.8,5.1-3.1,10,0.1,14.4c-4.5,2.6-8.9,5.6-13.1,9.2c-16.8,14.1-29.7,35.1-34.1,68.6l-0.5,2.9
	c-0.2,1.9-0.4,3.5-0.4,4.7c0,1.5,0.1,2.9,0.4,4.4L3.6,300.5L3.6,300.5z M428,174.7c46.4,0,84,37.6,84,84c0,46.4-37.6,84-84,84
	c-46.4,0-84-37.6-84-84C344,212.3,381.6,174.7,428,174.7z M414.8,224.1c0-3.9-0.4-6.7,4.5-6.6l15.7,0.2c5.1,0,6.4,1.6,6.4,6.3v21.4
	h21.3c3.9,0,6.7-0.4,6.6,4.4l-0.2,15.7c0,5.1-1.6,6.4-6.3,6.4h-21.4v21.4c0.1,4.8-1.3,6.4-6.4,6.3l-15.7,0.2
	c-4.9,0.1-4.5-2.7-4.5-6.6v-21.3h-21.4c-4.8,0.1-6.4-1.3-6.3-6.4l-0.2-15.7c-0.1-4.9,2.7-4.5,6.6-4.4h21.3L414.8,224.1L414.8,224.1z
	 M152.8,300.6c-2.4,0-4.4-2-4.4-4.4c0-1.2,0.2-2.5,0.5-3.7c7-55.7,40.4-67.8,71.3-75.8c14.8-3.8,44.4-18.7,40.9-37.9
	c-7.5-6.9-14.9-16.5-16.2-30.8l-0.9,0c-2.1,0-4.1-0.5-5.9-1.6c-4.1-2.4-6.4-6.9-7.5-12c-2.3-15.7-2.9-23.7,5.5-27.2l0.1,0
	c-1-19.3,2.2-47.8-17.6-53.8C257.6,5,302.8-21.3,336.8,21.8c37.8,2,54.7,55.5,31.2,85.5h-1c8.4,3.5,7.1,12.5,5.5,27.2
	c-1.1,5.1-3.4,9.6-7.5,12c-1.9,1.1-3.9,1.5-6,1.6l-0.9,0c-1.3,14.3-8.7,23.9-16.2,30.8c-1,5.4,0.6,10.5,3.8,15.1
	c-14,17.8-22.4,40.3-22.4,64.8c0,14.9,3.1,29.1,8.7,41.9L152.8,300.6L152.8,300.6z"/>
</svg>
