<?xml version="1.0" encoding="utf-8"?>
<!-- Generator: Adobe Illustrator 25.0.0, SVG Export Plug-In . SVG Version: 6.00 Build 0)  -->
<svg version="1.1" id="Layer_1" xmlns="http://www.w3.org/2000/svg" xmlns:xlink="http://www.w3.org/1999/xlink" x="0px" y="0px"
	 viewBox="0 0 50 50" style="enable-background:new 0 0 50 50;" xml:space="preserve">
<style type="text/css">
	.st0{fill:#0081FB;}
	.st1{fill:url(#Logo1_1_);}
	.st2{fill:url(#Logo2_1_);}
</style>
<g>
	<path id="Logo0" class="st0" d="M5.4,30.3c0,1.9,0.4,3.4,1,4.3c0.7,1.2,1.8,1.7,2.9,1.7c1.4,0,2.7-0.3,5.2-3.8c2-2.8,4.3-6.6,5.9-9
		l2.7-4.1c1.9-2.8,4-6,6.5-8.2c2-1.8,4.2-2.7,6.4-2.7c3.7,0,7.2,2.1,9.8,6.1C48.6,18.9,50,24.4,50,30c0,3.4-0.7,5.8-1.8,7.8
		c-1.1,1.9-3.2,3.8-6.8,3.8v-5.4c3.1,0,3.8-2.8,3.8-6c0-4.6-1.1-9.7-3.4-13.3c-1.7-2.6-3.8-4.2-6.2-4.2c-2.6,0-4.7,1.9-7,5.4
		c-1.2,1.8-2.5,4.1-3.9,6.6l-1.6,2.8c-3.2,5.6-4,6.9-5.5,9c-2.8,3.7-5.1,5.1-8.3,5.1c-3.7,0-6-1.6-7.5-4C0.6,35.6,0,33,0,30.1
		L5.4,30.3z"/>
	
		<linearGradient id="Logo1_1_" gradientUnits="userSpaceOnUse" x1="10.8387" y1="27.8606" x2="45.2663" y2="26.1218" gradientTransform="matrix(1 0 0 -1 0 52)">
		<stop  offset="0" style="stop-color:#0064E1"/>
		<stop  offset="0.4" style="stop-color:#0064E1"/>
		<stop  offset="0.83" style="stop-color:#0073EE"/>
		<stop  offset="1" style="stop-color:#0082FB"/>
	</linearGradient>
	<path id="Logo1" class="st1" d="M4.3,14.9c2.5-3.8,6-6.5,10.1-6.5c2.4,0,4.7,0.7,7.2,2.7c2.7,2.2,5.6,5.8,9.2,11.8L32,25
		c3.1,5.2,4.9,7.8,5.9,9.1c1.3,1.6,2.3,2.1,3.5,2.1c3.1,0,3.8-2.8,3.8-6L50,30c0,3.4-0.7,5.8-1.8,7.8c-1.1,1.9-3.2,3.8-6.8,3.8
		c-2.2,0-4.2-0.5-6.4-2.5c-1.7-1.6-3.6-4.4-5.1-6.9l-4.5-7.5c-2.2-3.8-4.3-6.6-5.5-7.8c-1.3-1.4-2.9-3-5.6-3c-2.1,0-3.9,1.5-5.5,3.8
		L4.3,14.9z"/>
	
		<linearGradient id="Logo2_1_" gradientUnits="userSpaceOnUse" x1="7.2028" y1="19.4364" x2="7.2028" y2="32.1294" gradientTransform="matrix(1 0 0 -1 0 52)">
		<stop  offset="0" style="stop-color:#0082FB"/>
		<stop  offset="1" style="stop-color:#0064E0"/>
	</linearGradient>
	<path id="Logo2" class="st2" d="M14.3,13.8c-2.1,0-3.9,1.5-5.5,3.8c-2.1,3.2-3.5,8.1-3.5,12.7c0,1.9,0.4,3.4,1,4.3l-4.6,3
		C0.6,35.6,0,33,0,30.1c0-5.3,1.5-10.9,4.3-15.2c2.5-3.8,6-6.5,10.1-6.5L14.3,13.8z"/>
</g>
</svg>
